<svg xmlns="http://www.w3.org/2000/svg" xmlns:xlink="http://www.w3.org/1999/xlink" width="139" height="130" version="1.1" viewBox="0 0 139 130"><title>Group</title><g id="Page-1" fill="none" fill-rule="evenodd" stroke="none" stroke-width="1"><g id="Successfully-Provided-Existing-I-REC-Account-message" transform="translate(-372.000000, -290.000000)"><g id="Group" transform="translate(372.000000, 290.000000)"><g id="group_add-24px" transform="translate(8.666667, 0.000000)"><polygon id="Path" points="0 0 130 0 130 130 0 130"/><path id="Shape" fill="#9A9A9A" fill-rule="nonzero" d="M97.5,59.5833333 C106.491667,59.5833333 113.695833,52.325 113.695833,43.3333333 C113.695833,34.3416667 106.491667,27.0833333 97.5,27.0833333 C95.7666667,27.0833333 94.0875,27.3541667 92.5708333,27.8416667 C95.6583333,32.2291667 97.4458333,37.5375 97.4458333,43.3333333 C97.4458333,49.1291667 95.6041667,54.3833333 92.5708333,58.825 C94.0875,59.3125 95.7666667,59.5833333 97.5,59.5833333 Z M70.4166667,59.5833333 C79.4083333,59.5833333 86.6125,52.325 86.6125,43.3333333 C86.6125,34.3416667 79.4083333,27.0833333 70.4166667,27.0833333 C61.425,27.0833333 54.1666667,34.3416667 54.1666667,43.3333333 C54.1666667,52.325 61.425,59.5833333 70.4166667,59.5833333 Z M106.275,71.2833333 C110.770833,75.2375 113.75,80.275 113.75,86.6666667 L113.75,97.5 L130,97.5 L130,86.6666667 C130,78.325 117.1625,73.1791667 106.275,71.2833333 Z M70.4166667,70.4166667 C59.5833333,70.4166667 37.9166667,75.8333333 37.9166667,86.6666667 L37.9166667,97.5 L102.916667,97.5 L102.916667,86.6666667 C102.916667,75.8333333 81.25,70.4166667 70.4166667,70.4166667 Z"/></g><g id="check-24px" transform="translate(0.000000, 21.047619)"><polygon id="Path" points="0 0 61.905 0 61.905 61.905 0 61.905"/><polygon id="Path" fill="#9A9A9A" fill-rule="nonzero" points="21.987 42.208 11.127 31.428 7.429 35.073 21.987 49.524 53.238 18.502 49.566 14.857"/></g></g></g></g></svg>