<svg xmlns="http://www.w3.org/2000/svg" xmlns:xlink="http://www.w3.org/1999/xlink" width="2584" height="1756" viewBox="0 0 1937.59 1316.8"><g id="graph0" class="graph" transform="scale(1 1) rotate(0) translate(4 1312.8)"><title>UmlClassDiagram</title><polygon fill="#fff" stroke="transparent" points="-4 4 -4 -1312.8 1933.587 -1312.8 1933.587 4 -4 4"/><g id="node1" class="node"><title>0</title><polygon fill="#f2f2f2" stroke="#000" points="1334.892 -154.3 1334.892 -615.1 1916.614 -615.1 1916.614 -154.3 1334.892 -154.3"/><text x="1625.753" y="-598.5" fill="#000" font-family="Times,serif" font-size="14" text-anchor="middle">PrivateIssuer</text><polyline fill="none" stroke="#000" points="1334.892 -590.3 1916.614 -590.3"/><text x="1342.892" y="-573.7" fill="#000" font-family="Times,serif" font-size="14" text-anchor="start">Public:</text><text x="1342.892" y="-556.9" fill="#000" font-family="Times,serif" font-size="14" text-anchor="start">registry: ERC1888</text><text x="1342.892" y="-540.1" fill="#000" font-family="Times,serif" font-size="14" text-anchor="start">privateCertificateTopic: int</text><text x="1342.892" y="-523.3" fill="#000" font-family="Times,serif" font-size="14" text-anchor="start">publicCertificateTopic: int</text><text x="1342.892" y="-506.5" fill="#000" font-family="Times,serif" font-size="14" text-anchor="start">requestIssueNonce: uint</text><text x="1342.892" y="-489.7" fill="#000" font-family="Times,serif" font-size="14" text-anchor="start">requestMigrateToPublicNonce: uint</text><text x="1342.892" y="-472.9" fill="#000" font-family="Times,serif" font-size="14" text-anchor="start">requestIssueStorage: mapping(uint256=&gt;RequestIssue)</text><text x="1342.892" y="-456.1" fill="#000" font-family="Times,serif" font-size="14" text-anchor="start">requestMigrateToPublicStorage: mapping(uint256=&gt;RequestMigrateToPublic)</text><text x="1342.892" y="-439.3" fill="#000" font-family="Times,serif" font-size="14" text-anchor="start">commitments: mapping(uint256=&gt;bytes32)</text><text x="1342.892" y="-422.5" fill="#000" font-family="Times,serif" font-size="14" text-anchor="start">migrations: mapping(uint256=&gt;bool)</text><polyline fill="none" stroke="#000" points="1334.892 -414.3 1916.614 -414.3"/><text x="1342.892" y="-397.7" fill="#000" font-family="Times,serif" font-size="14" text-anchor="start">Private:</text><text x="1342.892" y="-380.9" fill="#000" font-family="Times,serif" font-size="14" text-anchor="start">validateProof(_key: address, _value: uint, _salt: string, _rootHash: bytes32, _proof: Proof[]): bool</text><text x="1342.892" y="-364.1" fill="#000" font-family="Times,serif" font-size="14" text-anchor="start">External:</text><text x="1342.892" y="-347.3" fill="#000" font-family="Times,serif" font-size="14" text-anchor="start">requestIssue(_data: bytes)</text><text x="1342.892" y="-330.5" fill="#000" font-family="Times,serif" font-size="14" text-anchor="start">approveIssue(_to: address, _requestId: uint, _commitment: bytes32, _validityData: bytes): uint256</text><text x="1342.892" y="-313.7" fill="#000" font-family="Times,serif" font-size="14" text-anchor="start">requestMigrateToPublic(_certificateId: uint, _volumeHash: bytes32)</text><text x="1342.892" y="-296.9" fill="#000" font-family="Times,serif" font-size="14" text-anchor="start">migrateToPublic(_requestId: uint, _value: uint, _salt: string, _proof: Proof[])</text><text x="1342.892" y="-280.1" fill="#000" font-family="Times,serif" font-size="14" text-anchor="start">Public:</text><text x="1342.892" y="-263.3" fill="#000" font-family="Times,serif" font-size="14" text-anchor="start">&lt;&lt;event&gt;&gt; CommitmentUpdated(_owner: address, _id: uint256, _commitment: bytes32)</text><text x="1342.892" y="-246.5" fill="#000" font-family="Times,serif" font-size="14" text-anchor="start">&lt;&lt;event&gt;&gt; IssueRequest(_owner: address, _id: uint256)</text><text x="1342.892" y="-229.7" fill="#000" font-family="Times,serif" font-size="14" text-anchor="start">&lt;&lt;event&gt;&gt; MigrateToPublicRequest(_owner: address, _id: uint256)</text><text x="1342.892" y="-212.9" fill="#000" font-family="Times,serif" font-size="14" text-anchor="start">constructor(_registry: ERC1888)</text><text x="1342.892" y="-196.1" fill="#000" font-family="Times,serif" font-size="14" text-anchor="start">updateCommitment(_id: uint, _commitment: bytes32)</text><text x="1342.892" y="-179.3" fill="#000" font-family="Times,serif" font-size="14" text-anchor="start">encodeIssue(_from: uint, _to: uint, _deviceId: string, _requestId: uint): bytes</text><text x="1342.892" y="-162.5" fill="#000" font-family="Times,serif" font-size="14" text-anchor="start">decodeIssue(_data: bytes): (uint, uint, string, uint)</text></g><g id="node11" class="node"><title>7</title><polygon fill="#f2f2f2" stroke="#000" points="825.87 -694.1 825.87 -953.3 1685.636 -953.3 1685.636 -694.1 825.87 -694.1"/><text x="1255.753" y="-936.7" fill="#000" font-family="Times,serif" font-size="14" text-anchor="middle">&lt;&lt;Interface&gt;&gt;</text><text x="1255.753" y="-919.9" fill="#000" font-family="Times,serif" font-size="14" text-anchor="middle">ERC1888</text><polyline fill="none" stroke="#000" points="825.87 -911.7 1685.636 -911.7"/><polyline fill="none" stroke="#000" points="825.87 -886.9 1685.636 -886.9"/><text x="833.87" y="-870.3" fill="#000" font-family="Times,serif" font-size="14" text-anchor="start">External:</text><text x="833.87" y="-853.5" fill="#000" font-family="Times,serif" font-size="14" text-anchor="start">issue(_to: address, _validityData: bytes, _topic: int256, _value: uint256, _data: bytes): uint256</text><text x="833.87" y="-836.7" fill="#000" font-family="Times,serif" font-size="14" text-anchor="start">safeTransferAndClaimFrom(_from: address, _to: address, _id: uint256, _value: uint256, _data: bytes, _claimData: bytes32)</text><text x="833.87" y="-819.9" fill="#000" font-family="Times,serif" font-size="14" text-anchor="start">safeBatchTransferAndClaimFrom(_from: address, _to: address, _ids: uint256[], _values: uint256[], _data: bytes, _claimData: bytes32[])</text><text x="833.87" y="-803.1" fill="#000" font-family="Times,serif" font-size="14" text-anchor="start">getCertificate(_id: uint256): (issuer: address, topic: int256, validityCall: bytes, data: bytes)</text><text x="833.87" y="-786.3" fill="#000" font-family="Times,serif" font-size="14" text-anchor="start">claimedBalanceOf(_owner: address, _id: uint256): uint256</text><text x="833.87" y="-769.5" fill="#000" font-family="Times,serif" font-size="14" text-anchor="start">claimedBalanceOfBatch(_owners: address[], _ids: uint256[]): uint256[]</text><text x="833.87" y="-752.7" fill="#000" font-family="Times,serif" font-size="14" text-anchor="start">Public:</text><text x="833.87" y="-735.9" fill="#000" font-family="Times,serif" font-size="14" text-anchor="start">&lt;&lt;event&gt;&gt; IssuanceSingle(_issuer: address, _topic: int256, _id: uint256)</text><text x="833.87" y="-719.1" fill="#000" font-family="Times,serif" font-size="14" text-anchor="start">&lt;&lt;event&gt;&gt; ClaimSingle(_claimIssuer: address, _claimSubject: address, _topic: int256, _id: uint256, _value: uint256, _claimData: bytes32)</text><text x="833.87" y="-702.3" fill="#000" font-family="Times,serif" font-size="14" text-anchor="start">&lt;&lt;event&gt;&gt; ClaimBatch(_claimIssuer: address, _claimSubject: address, _topics: int256[], _ids: uint256[], _values: uint256[], _claimData: bytes32[])</text></g><g id="edge5" class="edge"><title>0-&gt;7</title><path fill="none" stroke="#000" d="M1431.5429,-615.1281C1411.0867,-639.3992 1390.7809,-663.4917 1371.6295,-686.2146"/><polygon fill="#000" stroke="#000" points="1368.949 -683.964 1365.18 -693.866 1374.301 -688.476 1368.949 -683.964"/></g><g id="node2" class="node"><title>0struct0</title><polygon fill="#f2f2f2" stroke="#000" points="1428.568 -8.9 1428.568 -108.9 1528.939 -108.9 1528.939 -8.9 1428.568 -8.9"/><text x="1478.753" y="-92.3" fill="#000" font-family="Times,serif" font-size="14" text-anchor="middle">&lt;&lt;struct&gt;&gt;</text><text x="1478.753" y="-75.5" fill="#000" font-family="Times,serif" font-size="14" text-anchor="middle">RequestIssue</text><polyline fill="none" stroke="#000" points="1428.568 -67.3 1528.939 -67.3"/><text x="1436.568" y="-50.7" fill="#000" font-family="Times,serif" font-size="14" text-anchor="start">owner: address</text><text x="1436.568" y="-33.9" fill="#000" font-family="Times,serif" font-size="14" text-anchor="start">data: bytes</text><text x="1436.568" y="-17.1" fill="#000" font-family="Times,serif" font-size="14" text-anchor="start">approved: bool</text></g><g id="edge1" class="edge"><title>0struct0-&gt;0</title><path fill="none" stroke="#000" d="M1501.4,-109.0922C1506.0406,-119.3773 1511.2117,-130.8381 1516.7351,-143.0798"/><polygon fill="#000" stroke="#000" points="1516.74 -143.09 1522.854 -146.915 1521.675 -154.029 1515.562 -150.205 1516.74 -143.09"/></g><g id="node3" class="node"><title>0struct1</title><polygon fill="#f2f2f2" stroke="#000" points="1547.38 -.5 1547.38 -117.3 1704.127 -117.3 1704.127 -.5 1547.38 -.5"/><text x="1625.753" y="-100.7" fill="#000" font-family="Times,serif" font-size="14" text-anchor="middle">&lt;&lt;struct&gt;&gt;</text><text x="1625.753" y="-83.9" fill="#000" font-family="Times,serif" font-size="14" text-anchor="middle">RequestMigrateToPublic</text><polyline fill="none" stroke="#000" points="1547.38 -75.7 1704.127 -75.7"/><text x="1555.38" y="-59.1" fill="#000" font-family="Times,serif" font-size="14" text-anchor="start">owner: address</text><text x="1555.38" y="-42.3" fill="#000" font-family="Times,serif" font-size="14" text-anchor="start">certificateId: uint</text><text x="1555.38" y="-25.5" fill="#000" font-family="Times,serif" font-size="14" text-anchor="start">volumeHash: bytes32</text><text x="1555.38" y="-8.7" fill="#000" font-family="Times,serif" font-size="14" text-anchor="start">approved: bool</text></g><g id="edge2" class="edge"><title>0struct1-&gt;0</title><path fill="none" stroke="#000" d="M1625.7534,-117.5228C1625.7534,-125.1186 1625.7534,-133.2361 1625.7534,-141.7412"/><polygon fill="#000" stroke="#000" points="1625.754 -142.01 1629.753 -148.01 1625.753 -154.01 1621.753 -148.01 1625.754 -142.01"/></g><g id="node4" class="node"><title>0struct2</title><polygon fill="#f2f2f2" stroke="#000" points="1722.454 -17.3 1722.454 -100.5 1815.053 -100.5 1815.053 -17.3 1722.454 -17.3"/><text x="1768.753" y="-83.9" fill="#000" font-family="Times,serif" font-size="14" text-anchor="middle">&lt;&lt;struct&gt;&gt;</text><text x="1768.753" y="-67.1" fill="#000" font-family="Times,serif" font-size="14" text-anchor="middle">Proof</text><polyline fill="none" stroke="#000" points="1722.454 -58.9 1815.053 -58.9"/><text x="1730.454" y="-42.3" fill="#000" font-family="Times,serif" font-size="14" text-anchor="start">left: bool</text><text x="1730.454" y="-25.5" fill="#000" font-family="Times,serif" font-size="14" text-anchor="start">hash: bytes32</text></g><g id="edge3" class="edge"><title>0struct2-&gt;0</title><path fill="none" stroke="#000" d="M1750.3514,-100.8257C1744.9579,-113.1138 1738.6409,-127.5059 1731.7635,-143.1748"/><polygon fill="#000" stroke="#000" points="1731.74 -143.228 1732.991 -150.33 1726.917 -154.216 1725.666 -147.114 1731.74 -143.228"/></g><g id="node5" class="node"><title>1</title><polygon fill="#f2f2f2" stroke="#000" points="42.728 -271.9 42.728 -497.5 764.779 -497.5 764.779 -271.9 42.728 -271.9"/><text x="403.753" y="-480.9" fill="#000" font-family="Times,serif" font-size="14" text-anchor="middle">Registry</text><polyline fill="none" stroke="#000" points="42.728 -472.7 764.779 -472.7"/><text x="50.728" y="-456.1" fill="#000" font-family="Times,serif" font-size="14" text-anchor="start">Public:</text><text x="50.728" y="-439.3" fill="#000" font-family="Times,serif" font-size="14" text-anchor="start">nonce: uint</text><text x="50.728" y="-422.5" fill="#000" font-family="Times,serif" font-size="14" text-anchor="start">certificateStorage: mapping(uint256=&gt;Certificate)</text><text x="50.728" y="-405.7" fill="#000" font-family="Times,serif" font-size="14" text-anchor="start">claimedBalances: mapping(uint256=&gt;mapping(address=&gt;uint256))</text><polyline fill="none" stroke="#000" points="42.728 -397.5 764.779 -397.5"/><text x="50.728" y="-380.9" fill="#000" font-family="Times,serif" font-size="14" text-anchor="start">Internal:</text><text x="50.728" y="-364.1" fill="#000" font-family="Times,serif" font-size="14" text-anchor="start">_burn(_from: address, _id: uint256, _value: uint256)</text><text x="50.728" y="-347.3" fill="#000" font-family="Times,serif" font-size="14" text-anchor="start">_validate(_verifier: address, _validityData: bytes)</text><text x="50.728" y="-330.5" fill="#000" font-family="Times,serif" font-size="14" text-anchor="start">External:</text><text x="50.728" y="-313.7" fill="#000" font-family="Times,serif" font-size="14" text-anchor="start">issue(_to: address, _validityData: bytes, _topic: int256, _value: uint256, _data: bytes): uint256</text><text x="50.728" y="-296.9" fill="#000" font-family="Times,serif" font-size="14" text-anchor="start">safeTransferAndClaimFrom(_from: address, _to: address, _id: uint256, _value: uint256, _data: bytes, _claimData: bytes32)</text><text x="50.728" y="-280.1" fill="#000" font-family="Times,serif" font-size="14" text-anchor="start">claimedBalanceOf(_owner: address, _id: uint256): uint256</text></g><g id="node8" class="node"><title>4</title><polygon fill="#f2f2f2" stroke="#000" points="0 -652.1 0 -995.3 807.507 -995.3 807.507 -652.1 0 -652.1"/><text x="403.753" y="-978.7" fill="#000" font-family="Times,serif" font-size="14" text-anchor="middle">ERC1155</text><polyline fill="none" stroke="#000" points="0 -970.5 807.507 -970.5"/><text x="8" y="-953.9" fill="#000" font-family="Times,serif" font-size="14" text-anchor="start">Private:</text><text x="8" y="-937.1" fill="#000" font-family="Times,serif" font-size="14" text-anchor="start">INTERFACE_SIGNATURE_ERC165: bytes4</text><text x="8" y="-920.3" fill="#000" font-family="Times,serif" font-size="14" text-anchor="start">INTERFACE_SIGNATURE_ERC1155: bytes4</text><text x="8" y="-903.5" fill="#000" font-family="Times,serif" font-size="14" text-anchor="start">Internal:</text><text x="8" y="-886.7" fill="#000" font-family="Times,serif" font-size="14" text-anchor="start">balances: mapping(uint256=&gt;mapping(address=&gt;uint256))</text><text x="8" y="-869.9" fill="#000" font-family="Times,serif" font-size="14" text-anchor="start">operatorApproval: mapping(address=&gt;mapping(address=&gt;bool))</text><polyline fill="none" stroke="#000" points="0 -861.7 807.507 -861.7"/><text x="8" y="-845.1" fill="#000" font-family="Times,serif" font-size="14" text-anchor="start">Internal:</text><text x="8" y="-828.3" fill="#000" font-family="Times,serif" font-size="14" text-anchor="start">_doSafeTransferAcceptanceCheck(_operator: address, _from: address, _to: address, _id: uint256, _value: uint256, _data: bytes)</text><text x="8" y="-811.5" fill="#000" font-family="Times,serif" font-size="14" text-anchor="start">_doSafeBatchTransferAcceptanceCheck(_operator: address, _from: address, _to: address, _ids: uint256[], _values: uint256[], _data: bytes)</text><text x="8" y="-794.7" fill="#000" font-family="Times,serif" font-size="14" text-anchor="start">External:</text><text x="8" y="-777.9" fill="#000" font-family="Times,serif" font-size="14" text-anchor="start">safeBatchTransferFrom(_from: address, _to: address, _ids: uint256[], _values: uint256[], _data: bytes)</text><text x="8" y="-761.1" fill="#000" font-family="Times,serif" font-size="14" text-anchor="start">balanceOf(_owner: address, _id: uint256): uint256</text><text x="8" y="-744.3" fill="#000" font-family="Times,serif" font-size="14" text-anchor="start">balanceOfBatch(_owners: address[], _ids: uint256[]): uint256[]</text><text x="8" y="-727.5" fill="#000" font-family="Times,serif" font-size="14" text-anchor="start">setApprovalForAll(_operator: address, _approved: bool)</text><text x="8" y="-710.7" fill="#000" font-family="Times,serif" font-size="14" text-anchor="start">isApprovedForAll(_owner: address, _operator: address): bool</text><text x="8" y="-693.9" fill="#000" font-family="Times,serif" font-size="14" text-anchor="start">Public:</text><text x="8" y="-677.1" fill="#000" font-family="Times,serif" font-size="14" text-anchor="start">supportsInterface(_interfaceId: bytes4): bool</text><text x="8" y="-660.3" fill="#000" font-family="Times,serif" font-size="14" text-anchor="start">safeTransferFrom(_from: address, _to: address, _id: uint256, _value: uint256, _data: bytes)</text></g><g id="edge6" class="edge"><title>1-&gt;4</title><path fill="none" stroke="#000" d="M403.7534,-497.7534C403.7534,-535.6537 403.7534,-579.1406 403.7534,-621.7407"/><polygon fill="none" stroke="#000" points="393.253 -621.758 403.753 -651.758 414.253 -621.758 393.253 -621.758"/></g><g id="edge7" class="edge"><title>1-&gt;7</title><path fill="none" stroke="#000" stroke-dasharray="5 2" d="M622.8878,-497.6108C730.8389,-553.2335 862.1942,-620.9154 977.1963,-680.1712"/><polygon fill="none" stroke="#000" points="972.659 -689.645 1004.136 -694.052 982.278 -670.977 972.659 -689.645"/></g><g id="node6" class="node"><title>2</title><polygon fill="#f2f2f2" stroke="#000" points="33.729 -1116.3 33.729 -1224.3 255.778 -1224.3 255.778 -1116.3 33.729 -1116.3"/><text x="144.753" y="-1207.7" fill="#000" font-family="Times,serif" font-size="14" text-anchor="middle">&lt;&lt;Library&gt;&gt;</text><text x="144.753" y="-1190.9" fill="#000" font-family="Times,serif" font-size="14" text-anchor="middle">Address</text><polyline fill="none" stroke="#000" points="33.729 -1182.7 255.778 -1182.7"/><polyline fill="none" stroke="#000" points="33.729 -1157.9 255.778 -1157.9"/><text x="41.729" y="-1141.3" fill="#000" font-family="Times,serif" font-size="14" text-anchor="start">Internal:</text><text x="41.729" y="-1124.5" fill="#000" font-family="Times,serif" font-size="14" text-anchor="start">isContract(account: address): bool</text></g><g id="node7" class="node"><title>3</title><polygon fill="#f2f2f2" stroke="#000" points="274.037 -1116.3 274.037 -1224.3 533.469 -1224.3 533.469 -1116.3 274.037 -1116.3"/><text x="403.753" y="-1207.7" fill="#000" font-family="Times,serif" font-size="14" text-anchor="middle">CommonConstants</text><polyline fill="none" stroke="#000" points="274.037 -1199.5 533.469 -1199.5"/><text x="282.037" y="-1182.9" fill="#000" font-family="Times,serif" font-size="14" text-anchor="start">Internal:</text><text x="282.037" y="-1166.1" fill="#000" font-family="Times,serif" font-size="14" text-anchor="start">ERC1155_ACCEPTED: bytes4</text><text x="282.037" y="-1149.3" fill="#000" font-family="Times,serif" font-size="14" text-anchor="start">ERC1155_BATCH_ACCEPTED: bytes4</text><polyline fill="none" stroke="#000" points="274.037 -1141.1 533.469 -1141.1"/></g><g id="edge10" class="edge"><title>4-&gt;2</title><path fill="none" stroke="#000" stroke-dasharray="5 2" d="M275.3916,-995.4769C245.3825,-1035.6358 215.2918,-1075.9038 191.5662,-1107.6539"/><polygon fill="#000" stroke="#000" points="188.545 -1105.85 185.363 -1115.956 194.153 -1110.04 188.545 -1105.85"/></g><g id="edge9" class="edge"><title>4-&gt;3</title><path fill="none" stroke="#000" d="M403.7534,-995.4769C403.7534,-1026.9204 403.7534,-1058.4309 403.7534,-1085.8672"/><polygon fill="none" stroke="#000" points="393.253 -1085.955 403.753 -1115.956 414.253 -1085.956 393.253 -1085.955"/></g><g id="node9" class="node"><title>5</title><polygon fill="#f2f2f2" stroke="#000" points="551.893 -1032.3 551.893 -1308.3 1203.614 -1308.3 1203.614 -1032.3 551.893 -1032.3"/><text x="877.753" y="-1291.7" fill="#000" font-family="Times,serif" font-size="14" text-anchor="middle">&lt;&lt;Interface&gt;&gt;</text><text x="877.753" y="-1274.9" fill="#000" font-family="Times,serif" font-size="14" text-anchor="middle">IERC1155</text><polyline fill="none" stroke="#000" points="551.893 -1266.7 1203.614 -1266.7"/><polyline fill="none" stroke="#000" points="551.893 -1241.9 1203.614 -1241.9"/><text x="559.893" y="-1225.3" fill="#000" font-family="Times,serif" font-size="14" text-anchor="start">External:</text><text x="559.893" y="-1208.5" fill="#000" font-family="Times,serif" font-size="14" text-anchor="start">safeTransferFrom(_from: address, _to: address, _id: uint256, _value: uint256, _data: bytes)</text><text x="559.893" y="-1191.7" fill="#000" font-family="Times,serif" font-size="14" text-anchor="start">safeBatchTransferFrom(_from: address, _to: address, _ids: uint256[], _values: uint256[], _data: bytes)</text><text x="559.893" y="-1174.9" fill="#000" font-family="Times,serif" font-size="14" text-anchor="start">balanceOf(_owner: address, _id: uint256): uint256</text><text x="559.893" y="-1158.1" fill="#000" font-family="Times,serif" font-size="14" text-anchor="start">balanceOfBatch(_owners: address[], _ids: uint256[]): uint256[]</text><text x="559.893" y="-1141.3" fill="#000" font-family="Times,serif" font-size="14" text-anchor="start">setApprovalForAll(_operator: address, _approved: bool)</text><text x="559.893" y="-1124.5" fill="#000" font-family="Times,serif" font-size="14" text-anchor="start">isApprovedForAll(_owner: address, _operator: address): bool</text><text x="559.893" y="-1107.7" fill="#000" font-family="Times,serif" font-size="14" text-anchor="start">Public:</text><text x="559.893" y="-1090.9" fill="#000" font-family="Times,serif" font-size="14" text-anchor="start">&lt;&lt;event&gt;&gt; TransferSingle(_operator: address, _from: address, _to: address, _id: uint256, _value: uint256)</text><text x="559.893" y="-1074.1" fill="#000" font-family="Times,serif" font-size="14" text-anchor="start">&lt;&lt;event&gt;&gt; TransferBatch(_operator: address, _from: address, _to: address, _ids: uint256[], _values: uint256[])</text><text x="559.893" y="-1057.3" fill="#000" font-family="Times,serif" font-size="14" text-anchor="start">&lt;&lt;event&gt;&gt; ApprovalForAll(_owner: address, _operator: address, _approved: bool)</text><text x="559.893" y="-1040.5" fill="#000" font-family="Times,serif" font-size="14" text-anchor="start">&lt;&lt;event&gt;&gt; URI(_value: string, _id: uint256)</text></g><g id="edge8" class="edge"><title>4-&gt;5</title><path fill="none" stroke="#000" stroke-dasharray="5 2" d="M638.6704,-995.4769C647.3729,-1001.8403 656.0791,-1008.2065 664.7421,-1014.5411"/><polygon fill="none" stroke="#000" points="658.589 -1023.049 689.003 -1032.281 670.984 -1006.098 658.589 -1023.049"/></g><g id="node10" class="node"><title>6</title><polygon fill="#f2f2f2" stroke="#000" points="1221.92 -1107.9 1221.92 -1232.7 1929.587 -1232.7 1929.587 -1107.9 1221.92 -1107.9"/><text x="1575.753" y="-1216.1" fill="#000" font-family="Times,serif" font-size="14" text-anchor="middle">&lt;&lt;Interface&gt;&gt;</text><text x="1575.753" y="-1199.3" fill="#000" font-family="Times,serif" font-size="14" text-anchor="middle">ERC1155TokenReceiver</text><polyline fill="none" stroke="#000" points="1221.92 -1191.1 1929.587 -1191.1"/><polyline fill="none" stroke="#000" points="1221.92 -1166.3 1929.587 -1166.3"/><text x="1229.92" y="-1149.7" fill="#000" font-family="Times,serif" font-size="14" text-anchor="start">External:</text><text x="1229.92" y="-1132.9" fill="#000" font-family="Times,serif" font-size="14" text-anchor="start">onERC1155Received(_operator: address, _from: address, _id: uint256, _value: uint256, _data: bytes): bytes4</text><text x="1229.92" y="-1116.1" fill="#000" font-family="Times,serif" font-size="14" text-anchor="start">onERC1155BatchReceived(_operator: address, _from: address, _ids: uint256[], _values: uint256[], _data: bytes): bytes4</text></g><g id="edge11" class="edge"><title>4-&gt;6</title><path fill="none" stroke="#000" stroke-dasharray="5 2" d="M807.6866,-993.5042C810.7148,-994.2876 813.7374,-995.0532 816.7534,-995.8 988.298,-1038.2788 1040.5843,-991.9275 1212.7534,-1031.8 1286.0336,-1048.7709 1364.3518,-1077.2374 1429.4134,-1103.9642"/><polygon fill="#000" stroke="#000" points="1428.336 -1107.306 1438.914 -1107.893 1431.011 -1100.837 1428.336 -1107.306"/></g><g id="node12" class="node"><title>7struct0</title><polygon fill="#f2f2f2" stroke="#000" points="1194.681 -326.3 1194.681 -443.1 1316.825 -443.1 1316.825 -326.3 1194.681 -326.3"/><text x="1255.753" y="-426.5" fill="#000" font-family="Times,serif" font-size="14" text-anchor="middle">&lt;&lt;struct&gt;&gt;</text><text x="1255.753" y="-409.7" fill="#000" font-family="Times,serif" font-size="14" text-anchor="middle">Certificate</text><polyline fill="none" stroke="#000" points="1194.681 -401.5 1316.825 -401.5"/><text x="1202.681" y="-384.9" fill="#000" font-family="Times,serif" font-size="14" text-anchor="start">topic: int256</text><text x="1202.681" y="-368.1" fill="#000" font-family="Times,serif" font-size="14" text-anchor="start">issuer: address</text><text x="1202.681" y="-351.3" fill="#000" font-family="Times,serif" font-size="14" text-anchor="start">validityData: bytes</text><text x="1202.681" y="-334.5" fill="#000" font-family="Times,serif" font-size="14" text-anchor="start">data: bytes</text></g><g id="edge4" class="edge"><title>7struct0-&gt;7</title><path fill="none" stroke="#000" d="M1255.7534,-443.45C1255.7534,-504.008 1255.7534,-600.7021 1255.7534,-681.4255"/><polygon fill="#000" stroke="#000" points="1255.754 -681.724 1259.753 -687.724 1255.753 -693.724 1251.753 -687.724 1255.754 -681.724"/></g></g></svg>